<svg xmlns="http://www.w3.org/2000/svg" id="Layer_1" viewBox="0 0 512 512" width="512" height="512"><style>.st0{fill:#fff}</style><path d="M384.7 251.3c-.1-7.2-1.1-14.3-2.4-21.3-1.7-8.4-4.1-16.4-7.4-24.2-3.4-7.7-7.2-14.9-12-22-4.7-6.8-9.9-13-15.7-19-5.8-5.7-12.3-11.2-19.1-15.7-6.8-4.7-14.2-8.5-21.8-11.9-7.7-3.2-16-5.8-24.1-7.4-8.5-1.7-17.3-2.7-26.1-2.7-8.6 0-17.4 1-25.9 2.7-8.1 1.6-16.4 4.1-24.1 7.4-7.7 3.4-15.2 7.2-22 11.9-6.7 4.5-13.3 10.1-19 15.7-6 6-11.2 12.2-15.7 19-4.8 7.1-8.8 14.3-11.8 22-3.5 7.8-6 15.9-7.7 24.2-1.4 6.5-2.3 13.3-2.4 19.8-.3 2-.3 4-.3 6.2 0 8.6.9 17.3 2.7 25.8 1.7 8.4 4.1 16.4 7.7 24.2 3 7.7 6.9 14.9 11.8 22 4.5 6.7 9.8 13 15.7 19 5.7 6 12.3 11.2 19 15.7 6.8 4.5 14.3 8.5 22 11.8 7.7 3.4 16 6 24.1 7.7 8.5 1.8 17.3 2.4 25.9 2.4 8.8 0 17.6-.6 26.1-2.4 8.1-1.7 16.4-4.3 24.1-7.7 7.7-3.3 15-7.2 21.8-11.8 6.8-4.5 13.3-9.8 19.1-15.7 5.8-6 11.1-12.3 15.7-19 4.8-7.1 8.7-14.3 12-22 3.3-7.8 5.7-15.9 7.4-24.2 1.7-8.5 2.7-17.3 2.7-25.8 0-1.7 0-3.1-.3-4.7zM256 146c27.8 0 53.4 10.4 72.7 27.4-.3.4-16 24.2-57.4 39.8-18.7-34.6-39.5-61.9-41.1-64.1 8.4-2 16.9-3.1 25.8-3.1zm-26.2 3.1s-.1.1-.4.1c.2.1.2-.1.4-.1zm-20.9 7.4c1.6 2 22 29.6 41 63.5-52.7 14-98.7 13.3-101.5 13.3 7.2-34.1 29.9-62.3 60.5-76.8zm-34.7 173.1c-17.6-19.4-28.2-45.2-28.2-73.4 0-1.4 0-2.4.1-3.5 1.8 0 56.3 1.3 113-15.7 3.1 6.1 6.1 12.5 8.9 18.9-1.6.1-3 .6-4.4 1.3-59.5 19-89.4 72.4-89.4 72.4zm81.8 36.5c-25.5 0-48.9-8.8-67.6-23.4 0 0-1-.7-2.4-2 .7.7 1.6 1.3 2.4 2 .3-.4 21.5-46.2 86.5-68.8.3 0 .4-.1.7-.1 15.4 40.3 21.8 74 23.4 83.5-13.2 5.6-27.7 8.8-43 8.8zm61.5-18.8c-1.1-6.6-6.9-38.8-21.4-78.5 35.6-5.7 66.3 4 68.7 4.7-5 30.7-22.5 57.2-47.3 73.8zm-27.9-96c-1-2-1.8-3.8-2.4-5.7-1.8-4-3.5-7.7-5.2-11.6-.7-1.4-1.4-2.8-2.3-4.4 43.5-17.7 61.1-43.1 61.5-43.5 13.6 16.6 22.5 37.4 24.5 60.1.1 2.8.4 5.7.4 8.8-1.5-.4-38.9-8.5-76.5-3.7z" class="st0"/></svg>