<svg xmlns="http://www.w3.org/2000/svg" id="Layer_1" viewBox="0 0 512 512" width="512" height="512"><style>.st0{fill:#fff}</style><path d="M282.1 238.1c-18.9.3-37.7.3-56.6.3-5.4 0-10.9-.3-16.2 0-1.1 0-2.8 1.3-2.8 2-.1 10.9-.1 21.8-.1 33.2h46.1c-.4 2.3-.8 4-1.6 5.5-7 21-28.6 31.3-52 27.5-28.9-4.8-46.8-31.5-41.5-60.4.6-4.1 2-8.1 3.4-11.8 9.6-21 33.3-33.7 56.7-28.5 8.4 1.8 15.6 5.7 21.7 11.2l25.4-25.4c-.6-.4-1.6-1.1-2.1-1.8-20.4-17.2-43.8-23.5-70-19.1-37.9 6.1-65.1 35.9-70.9 70.6-2.7 14.7-1.6 30.5 4.3 45.8 14.5 36.7 51.4 59.3 91.1 54.9 19.4-2.1 36.7-9.1 50-23.4 20-21.3 25.2-46.8 22-75-.7-4.7-2.5-5.6-6.9-5.6zm110.2 2.4h-30.1v-30.1h-22.1v30.1h-30.2v22.1h30.2v30.1h22.1v-30.1h30.1z" class="st0"/></svg>