<svg xmlns="http://www.w3.org/2000/svg" id="Layer_1" viewBox="0 0 512 512" width="512" height="512"><style>.st0{fill:#fff}</style><path d="M386.7 176.3c-9.5 4.1-19.8 6.9-30.8 8.4 11.2-6.7 19.7-16.9 23.7-29.3-10.4 6.1-22 10.5-34.2 12.9-9.7-10.3-23.7-16.7-39.3-16.7-29.5 0-53.6 23.7-53.6 52.7 0 4.3.7 8.2 1.6 12.1-44.6-2.1-84.2-23.1-110.6-55.1-4.5 7.9-7.4 16.9-7.4 26.5 0 18.4 9.6 34.6 23.8 43.9-8.8-.1-17-2.6-24.2-6.5v.7c0 6.8 1.3 13 3.7 19 6.5 16.6 21.4 29.1 39.4 32.6-4.7 1.3-9.2 2-14.2 2-3.4 0-6.8-.4-10.1-1.1 7 21 26.7 36.3 50 36.8-18.4 14.2-41.4 22.5-66.5 22.5-4.4 0-8.5-.3-12.9-.7 23.8 14.9 52 23.7 82.2 23.7 83.8 0 135.5-58 149-118.2 2.4-10.8 3.5-21.4 3.5-31.9v-6.8c10.6-7.7 19.8-17 26.9-27.5z" class="st0"/></svg>