<svg xmlns="http://www.w3.org/2000/svg" id="Layer_1" viewBox="0 0 512 512" width="512" height="512"><style>.st0{fill:#fff}</style><path d="M397.6 184.7c-3.8-2.8-17.6-2.8-31.2-2.8-13.9.3-27.8.3-31 1.6-3 1.1-9.6 17.3-18.3 33.9-9.9 18.7-22 36.9-29.6 36.6-10.1 0-7.6-30.8-6.9-53.6.1-14.9-2.3-19.7-4.4-21-5.2-3.7-19.7-7.2-19.7-7.2s-43.4-3.3-49.5 15.4c8.4 1.1 22.5-1.4 17 56.6-.4 2.8-6.7 26.7-26.8-5.5-5.1-8.1-24.4-56.4-31.2-56.7-22.3-.4-44.4-1.4-52 2.8-7.2 4.3 9.6 37.4 38.1 81.9 23.1 36.6 47.6 64.9 90.1 72 8.1.9 28.8 1.7 35.4-1.4 4.4-2.1-1.1-33.6 14-36.7 6.7-1.3 32.6 32.9 42.4 36.7 6 2.4 19 3.4 32.3 2.8 14.5-.4 30.9 1.4 32.5-8.5 3.5-21.7-43.8-50-45.1-63.4-1.1-9.6 17.3-27.4 26.6-41 11.8-16.4 24.5-36.3 17.3-42.5z" class="st0"/></svg>